<svg width="64" height="64" viewBox="0 0 64 64" fill="none" xmlns="http://www.w3.org/2000/svg">
<g filter="url(#filter0_d)">
<path d="M61 44C61 52.2843 48.0163 59 32 59C15.9837 59 3 52.2843 3 44C3 35.7157 15.9837 29 32 29C48.0163 29 61 35.7157 61 44Z" fill="#535353"/>
<path d="M61 44C61 52.2843 48.0163 59 32 59C15.9837 59 3 52.2843 3 44C3 35.7157 15.9837 29 32 29C48.0163 29 61 35.7157 61 44Z" fill="#535353"/>
</g>
<g filter="url(#filter1_d)">
<path d="M61 36C61 44.2843 48.0163 51 32 51C15.9837 51 3 44.2843 3 36C3 27.7157 15.9837 21 32 21C48.0163 21 61 27.7157 61 36Z" fill="#787878"/>
<path d="M61 36C61 44.2843 48.0163 51 32 51C15.9837 51 3 44.2843 3 36C3 27.7157 15.9837 21 32 21C48.0163 21 61 27.7157 61 36Z" fill="#787878"/>
</g>
<g filter="url(#filter2_d)">
<path d="M61 28C61 36.2843 48.0163 43 32 43C15.9837 43 3 36.2843 3 28C3 19.7157 15.9837 13 32 13C48.0163 13 61 19.7157 61 28Z" fill="#939393"/>
<path d="M61 28C61 36.2843 48.0163 43 32 43C15.9837 43 3 36.2843 3 28C3 19.7157 15.9837 13 32 13C48.0163 13 61 19.7157 61 28Z" fill="#939393"/>
</g>
<g filter="url(#filter3_d)">
<path d="M61 20C61 28.2843 48.0163 35 32 35C15.9837 35 3 28.2843 3 20C3 11.7157 15.9837 5 32 5C48.0163 5 61 11.7157 61 20Z" fill="#B4B4B4"/>
<path d="M61 20C61 28.2843 48.0163 35 32 35C15.9837 35 3 28.2843 3 20C3 11.7157 15.9837 5 32 5C48.0163 5 61 11.7157 61 20Z" fill="#B4B4B4"/>
</g>
<path d="M36 20C36 21.1046 34.2091 22 32 22C29.7909 22 28 21.1046 28 20C28 18.8954 29.7909 18 32 18C34.2091 18 36 18.8954 36 20Z" fill="white"/>
<path d="M36 20C36 21.1046 34.2091 22 32 22C29.7909 22 28 21.1046 28 20C28 18.8954 29.7909 18 32 18C34.2091 18 36 18.8954 36 20Z" fill="white"/>
<g filter="url(#filter4_d)">
<path d="M39.0792 44.2149C42.3756 40.9143 50.6387 41.9439 54.3581 42.8713C46.5011 44.6225 43.3255 47.1631 42.7198 48.2144L45.2665 48.3341C38.1867 51.9281 36.5772 50.8054 36.6574 49.7947C36.1704 46.7876 38.4718 42.5175 39.805 41.304L39.0792 44.2149Z" fill="#286EC1"/>
<path d="M39.0792 44.2149C42.3756 40.9143 50.6387 41.9439 54.3581 42.8713C46.5011 44.6225 43.3255 47.1631 42.7198 48.2144L45.2665 48.3341C38.1867 51.9281 36.5772 50.8054 36.6574 49.7947C36.1704 46.7876 38.4718 42.5175 39.805 41.304L39.0792 44.2149Z" stroke="#286EC1"/>
</g>
<g filter="url(#filter5_d)">
<path d="M58.2789 52.0119C54.9825 55.3125 46.7195 54.2829 43 53.3555C50.857 51.6043 54.0327 49.0637 54.6383 48.0124L52.0916 47.8927C59.1714 44.2987 60.7809 45.4214 60.7007 46.4321C61.1877 49.4392 58.8863 53.7093 57.5531 54.9228L58.2789 52.0119Z" fill="#286EC1"/>
<path d="M58.2789 52.0119C54.9825 55.3125 46.7195 54.2829 43 53.3555C50.857 51.6043 54.0327 49.0637 54.6383 48.0124L52.0916 47.8927C59.1714 44.2987 60.7809 45.4214 60.7007 46.4321C61.1877 49.4392 58.8863 53.7093 57.5531 54.9228L58.2789 52.0119Z" stroke="#286EC1"/>
</g>
<defs>
<filter id="filter0_d" x="1" y="28" width="62" height="34" filterUnits="userSpaceOnUse" color-interpolation-filters="sRGB">
<feFlood flood-opacity="0" result="BackgroundImageFix"/>
<feColorMatrix in="SourceAlpha" type="matrix" values="0 0 0 0 0 0 0 0 0 0 0 0 0 0 0 0 0 0 127 0"/>
<feOffset dy="1"/>
<feGaussianBlur stdDeviation="1"/>
<feColorMatrix type="matrix" values="0 0 0 0 0 0 0 0 0 0 0 0 0 0 0 0 0 0 0.5 0"/>
<feBlend mode="normal" in2="BackgroundImageFix" result="effect1_dropShadow"/>
<feBlend mode="normal" in="SourceGraphic" in2="effect1_dropShadow" result="shape"/>
</filter>
<filter id="filter1_d" x="1" y="20" width="62" height="34" filterUnits="userSpaceOnUse" color-interpolation-filters="sRGB">
<feFlood flood-opacity="0" result="BackgroundImageFix"/>
<feColorMatrix in="SourceAlpha" type="matrix" values="0 0 0 0 0 0 0 0 0 0 0 0 0 0 0 0 0 0 127 0"/>
<feOffset dy="1"/>
<feGaussianBlur stdDeviation="1"/>
<feColorMatrix type="matrix" values="0 0 0 0 0 0 0 0 0 0 0 0 0 0 0 0 0 0 0.5 0"/>
<feBlend mode="normal" in2="BackgroundImageFix" result="effect1_dropShadow"/>
<feBlend mode="normal" in="SourceGraphic" in2="effect1_dropShadow" result="shape"/>
</filter>
<filter id="filter2_d" x="1" y="12" width="62" height="34" filterUnits="userSpaceOnUse" color-interpolation-filters="sRGB">
<feFlood flood-opacity="0" result="BackgroundImageFix"/>
<feColorMatrix in="SourceAlpha" type="matrix" values="0 0 0 0 0 0 0 0 0 0 0 0 0 0 0 0 0 0 127 0"/>
<feOffset dy="1"/>
<feGaussianBlur stdDeviation="1"/>
<feColorMatrix type="matrix" values="0 0 0 0 0 0 0 0 0 0 0 0 0 0 0 0 0 0 0.5 0"/>
<feBlend mode="normal" in2="BackgroundImageFix" result="effect1_dropShadow"/>
<feBlend mode="normal" in="SourceGraphic" in2="effect1_dropShadow" result="shape"/>
</filter>
<filter id="filter3_d" x="1" y="4" width="62" height="34" filterUnits="userSpaceOnUse" color-interpolation-filters="sRGB">
<feFlood flood-opacity="0" result="BackgroundImageFix"/>
<feColorMatrix in="SourceAlpha" type="matrix" values="0 0 0 0 0 0 0 0 0 0 0 0 0 0 0 0 0 0 127 0"/>
<feOffset dy="1"/>
<feGaussianBlur stdDeviation="1"/>
<feColorMatrix type="matrix" values="0 0 0 0 0 0 0 0 0 0 0 0 0 0 0 0 0 0 0.5 0"/>
<feBlend mode="normal" in2="BackgroundImageFix" result="effect1_dropShadow"/>
<feBlend mode="normal" in="SourceGraphic" in2="effect1_dropShadow" result="shape"/>
</filter>
<filter id="filter4_d" x="34.3939" y="38.3939" width="21.3022" height="18.3722" filterUnits="userSpaceOnUse" color-interpolation-filters="sRGB">
<feFlood flood-opacity="0" result="BackgroundImageFix"/>
<feColorMatrix in="SourceAlpha" type="matrix" values="0 0 0 0 0 0 0 0 0 0 0 0 0 0 0 0 0 0 127 0"/>
<feOffset dy="1"/>
<feGaussianBlur stdDeviation="0.5"/>
<feColorMatrix type="matrix" values="0 0 0 0 0 0 0 0 0 0 0 0 0 0 0 0 0 0 0.75 0"/>
<feBlend mode="normal" in2="BackgroundImageFix" result="effect1_dropShadow"/>
<feBlend mode="normal" in="SourceGraphic" in2="effect1_dropShadow" result="shape"/>
</filter>
<filter id="filter5_d" x="41.6621" y="41.4607" width="21.3022" height="18.3722" filterUnits="userSpaceOnUse" color-interpolation-filters="sRGB">
<feFlood flood-opacity="0" result="BackgroundImageFix"/>
<feColorMatrix in="SourceAlpha" type="matrix" values="0 0 0 0 0 0 0 0 0 0 0 0 0 0 0 0 0 0 127 0"/>
<feOffset dy="1"/>
<feGaussianBlur stdDeviation="0.5"/>
<feColorMatrix type="matrix" values="0 0 0 0 0 0 0 0 0 0 0 0 0 0 0 0 0 0 0.75 0"/>
<feBlend mode="normal" in2="BackgroundImageFix" result="effect1_dropShadow"/>
<feBlend mode="normal" in="SourceGraphic" in2="effect1_dropShadow" result="shape"/>
</filter>
</defs>
</svg>
